<svg width="100" height="100" viewBox="0 0 100 100" fill="none" xmlns="http://www.w3.org/2000/svg">
<circle cx="50" cy="50" r="50" fill="#E78341"/>
<path d="M26.8168 45.4929C26.7372 44.6908 26.3958 44.0677 25.7926 43.6236C25.1894 43.1794 24.3707 42.9574 23.3366 42.9574C22.634 42.9574 22.0407 43.0568 21.5568 43.2557C21.0729 43.4479 20.7017 43.7164 20.4432 44.0611C20.1913 44.4058 20.0653 44.7969 20.0653 45.2344C20.0521 45.599 20.1283 45.9171 20.294 46.1889C20.4664 46.4607 20.7017 46.696 21 46.8949C21.2983 47.0871 21.643 47.2562 22.0341 47.402C22.4252 47.5412 22.8428 47.6605 23.2869 47.7599L25.1165 48.1974C26.0047 48.3963 26.8201 48.6615 27.5625 48.9929C28.3049 49.3243 28.9479 49.732 29.4915 50.2159C30.035 50.6998 30.456 51.2699 30.7543 51.9261C31.0592 52.5824 31.215 53.3348 31.2216 54.1832C31.215 55.4295 30.8968 56.5099 30.267 57.4247C29.6439 58.3329 28.7424 59.0388 27.5625 59.5426C26.3892 60.0398 24.974 60.2884 23.3168 60.2884C21.6728 60.2884 20.241 60.0365 19.0213 59.5327C17.8082 59.0289 16.8603 58.2831 16.1776 57.2955C15.5014 56.3011 15.1468 55.0715 15.1136 53.6065H19.2798C19.3262 54.2893 19.5218 54.8594 19.8665 55.3168C20.2178 55.7675 20.6851 56.1089 21.2685 56.3409C21.8584 56.5663 22.5246 56.679 23.267 56.679C23.9962 56.679 24.6293 56.5729 25.1662 56.3608C25.7098 56.1487 26.1307 55.8537 26.429 55.4759C26.7273 55.098 26.8764 54.6638 26.8764 54.1733C26.8764 53.7159 26.7405 53.3314 26.4688 53.0199C26.2036 52.7083 25.8125 52.4432 25.2955 52.2244C24.785 52.0057 24.1586 51.8068 23.4162 51.6278L21.1989 51.071C19.482 50.6534 18.1264 50.0005 17.1321 49.1122C16.1378 48.224 15.6439 47.0275 15.6506 45.5227C15.6439 44.2898 15.9721 43.2126 16.6349 42.2912C17.3045 41.3698 18.2225 40.6506 19.3892 40.1335C20.5559 39.6165 21.8816 39.358 23.3665 39.358C24.8778 39.358 26.197 39.6165 27.3239 40.1335C28.4574 40.6506 29.339 41.3698 29.9688 42.2912C30.5985 43.2126 30.9233 44.2798 30.9432 45.4929H26.8168ZM45.1644 45.4929C45.0849 44.6908 44.7435 44.0677 44.1403 43.6236C43.5371 43.1794 42.7184 42.9574 41.6843 42.9574C40.9817 42.9574 40.3884 43.0568 39.9045 43.2557C39.4206 43.4479 39.0494 43.7164 38.7908 44.0611C38.5389 44.4058 38.413 44.7969 38.413 45.2344C38.3997 45.599 38.476 45.9171 38.6417 46.1889C38.814 46.4607 39.0494 46.696 39.3477 46.8949C39.646 47.0871 39.9906 47.2562 40.3817 47.402C40.7728 47.5412 41.1905 47.6605 41.6346 47.7599L43.4641 48.1974C44.3524 48.3963 45.1677 48.6615 45.9102 48.9929C46.6526 49.3243 47.2956 49.732 47.8391 50.2159C48.3827 50.6998 48.8036 51.2699 49.1019 51.9261C49.4068 52.5824 49.5626 53.3348 49.5692 54.1832C49.5626 55.4295 49.2444 56.5099 48.6147 57.4247C47.9916 58.3329 47.0901 59.0388 45.9102 59.5426C44.7369 60.0398 43.3216 60.2884 41.6644 60.2884C40.0205 60.2884 38.5887 60.0365 37.369 59.5327C36.1559 59.0289 35.208 58.2831 34.5252 57.2955C33.8491 56.3011 33.4944 55.0715 33.4613 53.6065H37.6275C37.6739 54.2893 37.8694 54.8594 38.2141 55.3168C38.5655 55.7675 39.0328 56.1089 39.6161 56.3409C40.2061 56.5663 40.8723 56.679 41.6147 56.679C42.3439 56.679 42.9769 56.5729 43.5138 56.3608C44.0574 56.1487 44.4783 55.8537 44.7766 55.4759C45.0749 55.098 45.2241 54.6638 45.2241 54.1733C45.2241 53.7159 45.0882 53.3314 44.8164 53.0199C44.5513 52.7083 44.1602 52.4432 43.6431 52.2244C43.1327 52.0057 42.5063 51.8068 41.7638 51.6278L39.5465 51.071C37.8297 50.6534 36.4741 50.0005 35.4798 49.1122C34.4854 48.224 33.9916 47.0275 33.9982 45.5227C33.9916 44.2898 34.3197 43.2126 34.9826 42.2912C35.6521 41.3698 36.5702 40.6506 37.7369 40.1335C38.9035 39.6165 40.2293 39.358 41.7141 39.358C43.2255 39.358 44.5446 39.6165 45.6715 40.1335C46.805 40.6506 47.6867 41.3698 48.3164 42.2912C48.9461 43.2126 49.271 44.2798 49.2908 45.4929H45.1644ZM56.7408 60.2884C55.7663 60.2884 54.898 60.1193 54.1357 59.7812C53.3733 59.4366 52.7701 58.9295 52.326 58.2599C51.8885 57.5838 51.6697 56.742 51.6697 55.7344C51.6697 54.8859 51.8255 54.1733 52.1371 53.5966C52.4486 53.0199 52.8729 52.5559 53.4098 52.2045C53.9467 51.8532 54.5566 51.5881 55.2393 51.4091C55.9287 51.2301 56.6513 51.1042 57.407 51.0312C58.2952 50.9384 59.0111 50.8523 59.5547 50.7727C60.0982 50.6866 60.4927 50.5606 60.7379 50.3949C60.9832 50.2292 61.1058 49.9839 61.1058 49.6591V49.5994C61.1058 48.9697 60.907 48.4825 60.5092 48.1378C60.1181 47.7931 59.5613 47.6207 58.8388 47.6207C58.0765 47.6207 57.4699 47.7898 57.0192 48.1278C56.5684 48.4593 56.2701 48.8769 56.1243 49.3807L52.2067 49.0625C52.4055 48.1345 52.7966 47.3324 53.38 46.6562C53.9633 45.9735 54.7157 45.4498 55.6371 45.0852C56.5651 44.714 57.639 44.5284 58.8587 44.5284C59.7071 44.5284 60.5192 44.6278 61.2947 44.8267C62.0769 45.0256 62.7697 45.3338 63.3729 45.7514C63.9827 46.169 64.4633 46.706 64.8146 47.3622C65.166 48.0118 65.3416 48.7907 65.3416 49.6989V60H61.3246V57.8821H61.2053C60.96 58.3594 60.6319 58.7803 60.2209 59.1449C59.8099 59.5028 59.3161 59.7846 58.7393 59.9901C58.1626 60.1889 57.4964 60.2884 56.7408 60.2884ZM57.9538 57.3651C58.5769 57.3651 59.1271 57.2424 59.6044 56.9972C60.0817 56.7453 60.4562 56.4072 60.728 55.983C60.9998 55.5587 61.1357 55.0781 61.1357 54.5412V52.9205C61.0031 53.0066 60.8208 53.0862 60.5888 53.1591C60.3634 53.2254 60.1082 53.2884 59.8232 53.348C59.5381 53.401 59.2531 53.4508 58.968 53.4972C58.683 53.5369 58.4245 53.5734 58.1925 53.6065C57.6953 53.6795 57.2611 53.7955 56.8899 53.9545C56.5187 54.1136 56.2304 54.3291 56.0249 54.6009C55.8194 54.866 55.7166 55.1974 55.7166 55.5952C55.7166 56.1719 55.9254 56.6127 56.343 56.9176C56.7673 57.2159 57.3042 57.3651 57.9538 57.3651ZM66.6467 43.1861V39.6364H83.3711V43.1861H77.1367V60H72.881V43.1861H66.6467Z" fill="white"/>
</svg>
